<svg width="204" height="45" viewBox="0 0 204 45" fill="none" xmlns="http://www.w3.org/2000/svg">
<rect width="204" height="45" fill="white"/>
<path d="M175.662 30H170.59V14.7113H175.662V20.7528L182.2 14.7113H188.505L180.771 21.6569L188.755 30H182.146L175.662 23.1571V30Z" fill="black"/>
<path d="M153.072 25.212H147.071V30H141.998V14.7113H153.072C157.275 14.7113 159.377 16.3963 159.377 19.7664V20.0952C159.377 23.5064 157.275 25.212 153.072 25.212ZM147.071 18.5334V21.3898H152.465C153.584 21.3898 154.144 20.924 154.144 19.9924V19.9308C154.144 18.9992 153.584 18.5334 152.465 18.5334H147.071Z" fill="black"/>
<path d="M130.88 23.7119L128.647 18.4512L126.468 23.7119H130.88ZM133.541 30L132.505 27.5341H124.914L123.896 30H118.752L125.325 14.7113H132.148L139.096 30H133.541Z" fill="black"/>
<path d="M97.4277 30V14.7113H102.5V20.1157H110.806V14.7113H115.86V30H110.806V24.1845H102.5V30H97.4277Z" fill="black"/>
<path d="M82.9854 30V18.8828H77.252V14.7113H93.7914V18.8828H88.058V30H82.9854Z" fill="black"/>
<path d="M69.3016 23.7119L67.0689 18.4512L64.8899 23.7119H69.3016ZM71.9629 30L70.927 27.5341H63.3359L62.3179 30H57.1738L63.7467 14.7113H70.5697L77.5177 30H71.9629Z" fill="black"/>
<path d="M41.7757 18.4307V21.061H47.5985C48.6225 21.061 49.1345 20.6226 49.1345 19.7459V19.7253C49.1345 18.8622 48.6225 18.4307 47.5985 18.4307H41.7757ZM41.7757 24.7599V30H36.7031V14.7113H48.7773C52.5043 14.7113 54.3679 16.0196 54.3679 18.6362V18.8622C54.3679 19.3828 54.2786 19.8555 54.0999 20.2801C53.9213 20.7048 53.6832 21.0473 53.3855 21.3076C53.0997 21.5679 52.8139 21.7734 52.5282 21.9241C52.2543 22.0748 51.9745 22.1912 51.6887 22.2734C52.5341 22.4926 53.2009 22.9173 53.6891 23.5475C54.1773 24.164 54.4214 24.9517 54.4214 25.9107V28.1711C54.4214 28.9657 54.5048 29.5411 54.6715 29.8973V30H49.4917C49.3846 29.863 49.331 29.5959 49.331 29.1986V27.4108C49.331 26.5066 49.1226 25.8422 48.7059 25.4175C48.301 24.9791 47.6104 24.7599 46.634 24.7599H41.7757Z" fill="black"/>
<path d="M26.9314 25.212H20.93V30H15.8574V14.7113H26.9314C31.1347 14.7113 33.2364 16.3963 33.2364 19.7664V20.0952C33.2364 23.5064 31.1347 25.212 26.9314 25.212ZM20.93 18.5334V21.3898H26.3241C27.4434 21.3898 28.003 20.924 28.003 19.9924V19.9308C28.003 18.9992 27.4434 18.5334 26.3241 18.5334H20.93Z" fill="black"/>
</svg>
