<svg width="204" height="45" viewBox="0 0 204 45" fill="none" xmlns="http://www.w3.org/2000/svg">
<rect width="204" height="45" fill="black"/>
<path d="M175.662 30H170.59V14.7113H175.662V20.7528L182.2 14.7113H188.505L180.771 21.657L188.755 30H182.146L175.662 23.1571V30Z" fill="white"/>
<path d="M153.071 25.212H147.07V30H141.997V14.7113H153.071C157.274 14.7113 159.376 16.3963 159.376 19.7664V20.0952C159.376 23.5064 157.274 25.212 153.071 25.212ZM147.07 18.5334V21.3898H152.464C153.583 21.3898 154.143 20.924 154.143 19.9925V19.9308C154.143 18.9992 153.583 18.5334 152.464 18.5334H147.07Z" fill="white"/>
<path d="M130.88 23.7119L128.648 18.4512L126.468 23.7119H130.88ZM133.542 30L132.506 27.5341H124.915L123.896 30H118.752L125.325 14.7113H132.148L139.096 30H133.542Z" fill="white"/>
<path d="M97.4272 30V14.7113H102.5V20.1157H110.805V14.7113H115.86V30H110.805V24.1845H102.5V30H97.4272Z" fill="white"/>
<path d="M82.9854 30V18.8828H77.252V14.7113H93.7914V18.8828H88.058V30H82.9854Z" fill="white"/>
<path d="M69.3016 23.7119L67.0689 18.4512L64.8899 23.7119H69.3016ZM71.9629 30L70.927 27.5341H63.3359L62.3179 30H57.1738L63.7467 14.7113H70.5697L77.5177 30H71.9629Z" fill="white"/>
<path d="M41.776 18.4307V21.061H47.5987C48.6227 21.061 49.1348 20.6226 49.1348 19.7459V19.7253C49.1348 18.8622 48.6227 18.4307 47.5987 18.4307H41.776ZM41.776 24.7599V30H36.7034V14.7113H48.7775C52.5046 14.7113 54.3681 16.0196 54.3681 18.6362V18.8622C54.3681 19.3828 54.2788 19.8555 54.1002 20.2801C53.9216 20.7048 53.6834 21.0473 53.3857 21.3076C53.1 21.5679 52.8142 21.7734 52.5284 21.9241C52.2545 22.0748 51.9747 22.1912 51.6889 22.2734C52.5344 22.4926 53.2012 22.9173 53.6894 23.5475C54.1776 24.164 54.4217 24.9517 54.4217 25.9107V28.1711C54.4217 28.9657 54.505 29.5411 54.6717 29.8973V30H49.492C49.3848 29.863 49.3312 29.5959 49.3312 29.1986V27.4108C49.3312 26.5066 49.1229 25.8422 48.7061 25.4175C48.3012 24.9791 47.6106 24.7599 46.6342 24.7599H41.776Z" fill="white"/>
<path d="M26.9314 25.212H20.93V30H15.8574V14.7113H26.9314C31.1347 14.7113 33.2364 16.3963 33.2364 19.7664V20.0952C33.2364 23.5064 31.1347 25.212 26.9314 25.212ZM20.93 18.5334V21.3898H26.3241C27.4434 21.3898 28.003 20.924 28.003 19.9925V19.9308C28.003 18.9992 27.4434 18.5334 26.3241 18.5334H20.93Z" fill="white"/>
</svg>
